<svg width="24" height="24" viewBox="0 0 24 24" fill="none" xmlns="http://www.w3.org/2000/svg">
<path d="M9.29001 15.88L13.17 12L9.29001 8.12002C9.19742 8.02744 9.12399 7.91753 9.07388 7.79657C9.02378 7.6756 8.99799 7.54596 8.99799 7.41503C8.99799 7.28409 9.02378 7.15445 9.07388 7.03348C9.12399 6.91252 9.19742 6.80261 9.29001 6.71002C9.38259 6.61744 9.4925 6.544 9.61346 6.4939C9.73443 6.44379 9.86408 6.418 9.99501 6.418C10.1259 6.418 10.2556 6.44379 10.3765 6.4939C10.4975 6.544 10.6074 6.61744 10.7 6.71002L15.29 11.3C15.3827 11.3925 15.4563 11.5024 15.5064 11.6234C15.5566 11.7444 15.5825 11.8741 15.5825 12.005C15.5825 12.136 15.5566 12.2657 15.5064 12.3866C15.4563 12.5076 15.3827 12.6175 15.29 12.71L10.7 17.3C10.6075 17.3927 10.4976 17.4663 10.3766 17.5165C10.2557 17.5666 10.126 17.5925 9.99501 17.5925C9.86404 17.5925 9.73436 17.5666 9.61338 17.5165C9.49241 17.4663 9.38252 17.3927 9.29001 17.3C8.91001 16.91 8.90001 16.27 9.29001 15.88Z" fill="white"/>
</svg>
