<svg width="289" height="288" viewBox="0 0 289 288" fill="none" xmlns="http://www.w3.org/2000/svg">
<g clip-path="url(#clip0_3_16)">
<path d="M183.688 182.359C184.87 181.177 186.008 179.93 187.07 178.654L187.1 178.619L276.04 89.6788C272.591 81.3487 268.322 73.3177 263.344 65.7998C258.112 57.8963 252.03 50.4604 245.269 43.6988C238.507 36.9371 231.071 30.8555 223.167 25.6227C215.649 20.6453 207.618 16.3758 199.288 12.9273L107.315 104.9L107.477 105.062L106.776 105.769C101.634 110.954 97.6568 116.99 94.9553 123.71C92.3449 130.203 91.0282 137.059 91.0417 144.089C91.0552 151.121 92.3988 157.973 95.0351 164.456C97.7645 171.168 101.769 177.191 106.936 182.359C112.117 187.54 118.158 191.551 124.889 194.281C128.125 195.593 131.508 196.596 134.946 197.261C138.351 197.921 141.839 198.255 145.312 198.255C148.786 198.255 152.274 197.921 155.679 197.261C159.116 196.596 162.5 195.593 165.735 194.281C172.467 191.551 178.507 187.54 183.688 182.359ZM184.395 183.066C162.81 204.651 127.814 204.651 106.229 183.066C84.6997 161.537 84.6465 126.663 106.066 105.065L105.901 104.9L199.052 11.749C216.122 18.7208 232.12 29.1361 245.976 42.9917C259.831 56.8472 270.246 72.8446 277.218 89.9147L187.839 179.294C186.76 180.59 185.611 181.85 184.395 183.066Z" fill="#00FF6C"/>
<path d="M144.984 120.163V167.805" stroke="#00FF6C"/>
<path d="M168.805 143.984H121.163" stroke="#00FF6C"/>
<path d="M245.622 244.622C301.203 189.041 301.203 98.9267 245.622 43.3457C190.041 -12.2352 99.9263 -12.2352 44.3453 43.3457C-11.2357 98.9267 -11.2357 189.041 44.3453 244.622C99.9263 300.203 190.041 300.203 245.622 244.622Z" stroke="#00FF6C"/>
</g>
<defs>
<clipPath id="clip0_3_16">
<rect width="289" height="288" fill="white"/>
</clipPath>
</defs>
</svg>
