<svg xmlns="http://www.w3.org/2000/svg" width="1261" height="421" viewBox="0 0 1261 421">
  <g id="Battery_diagram" data-name="Battery diagram" transform="translate(0.5 0.5)">
    <rect id="Rectangle_13" data-name="Rectangle 13" width="1260" height="420" rx="65" fill="none" stroke="#9d9d9d" stroke-width="1"/>
    <rect id="Rectangle_14" data-name="Rectangle 14" width="1200" height="360" rx="50" transform="translate(30 30)" fill="none" stroke="#9d9d9d" stroke-width="1"/>
    <line id="Line_118" data-name="Line 118" y1="50" x2="50" transform="translate(30 30)" fill="none" stroke="#9d9d9d" stroke-width="1"/>
    <line id="Line_119" data-name="Line 119" y1="70" x2="70" transform="translate(30 30)" fill="none" stroke="#9d9d9d" stroke-width="1"/>
    <line id="Line_120" data-name="Line 120" y1="90" x2="90" transform="translate(30 30)" fill="none" stroke="#9d9d9d" stroke-width="1"/>
    <line id="Line_121" data-name="Line 121" y1="110" x2="110" transform="translate(30 30)" fill="none" stroke="#9d9d9d" stroke-width="1"/>
    <line id="Line_122" data-name="Line 122" y1="130" x2="130" transform="translate(30 30)" fill="none" stroke="#9d9d9d" stroke-width="1"/>
    <line id="Line_123" data-name="Line 123" y1="150" x2="150" transform="translate(30 30)" fill="none" stroke="#9d9d9d" stroke-width="1"/>
    <line id="Line_124" data-name="Line 124" y1="170" x2="170" transform="translate(30 30)" fill="none" stroke="#9d9d9d" stroke-width="1"/>
    <line id="Line_125" data-name="Line 125" y1="190" x2="190" transform="translate(30 30)" fill="none" stroke="#9d9d9d" stroke-width="1"/>
    <line id="Line_126" data-name="Line 126" y1="210" x2="210" transform="translate(30 30)" fill="none" stroke="#9d9d9d" stroke-width="1"/>
    <line id="Line_127" data-name="Line 127" y1="230" x2="230" transform="translate(30 30)" fill="none" stroke="#9d9d9d" stroke-width="1"/>
    <line id="Line_128" data-name="Line 128" y1="250" x2="250" transform="translate(30 30)" fill="none" stroke="#9d9d9d" stroke-width="1"/>
    <line id="Line_129" data-name="Line 129" y1="270" x2="270" transform="translate(30 30)" fill="none" stroke="#9d9d9d" stroke-width="1"/>
    <line id="Line_130" data-name="Line 130" y1="290" x2="290" transform="translate(30 30)" fill="none" stroke="#9d9d9d" stroke-width="1"/>
    <line id="Line_131" data-name="Line 131" y1="310" x2="310" transform="translate(30 30)" fill="none" stroke="#9d9d9d" stroke-width="1"/>
    <line id="Line_132" data-name="Line 132" y1="327.007" x2="327.007" transform="translate(32.993 30)" fill="none" stroke="#9d9d9d" stroke-width="1"/>
    <line id="Line_133" data-name="Line 133" y1="340" x2="340" transform="translate(40 30)" fill="none" stroke="#9d9d9d" stroke-width="1"/>
    <line id="Line_134" data-name="Line 134" y1="350" x2="350" transform="translate(50 30)" fill="none" stroke="#9d9d9d" stroke-width="1"/>
    <line id="Line_135" data-name="Line 135" y1="357.075" x2="357.075" transform="translate(62.925 30)" fill="none" stroke="#9d9d9d" stroke-width="1"/>
    <line id="Line_136" data-name="Line 136" y1="360" x2="360" transform="translate(80 30)" fill="none" stroke="#9d9d9d" stroke-width="1"/>
    <line id="Line_137" data-name="Line 137" y1="360" x2="360" transform="translate(100 30)" fill="none" stroke="#9d9d9d" stroke-width="1"/>
    <line id="Line_138" data-name="Line 138" y1="360" x2="360" transform="translate(120 30)" fill="none" stroke="#9d9d9d" stroke-width="1"/>
    <line id="Line_139" data-name="Line 139" y1="360" x2="360" transform="translate(140 30)" fill="none" stroke="#9d9d9d" stroke-width="1"/>
    <line id="Line_140" data-name="Line 140" y1="360" x2="360" transform="translate(160 30)" fill="none" stroke="#9d9d9d" stroke-width="1"/>
    <line id="Line_141" data-name="Line 141" y1="360" x2="360" transform="translate(180 30)" fill="none" stroke="#9d9d9d" stroke-width="1"/>
    <line id="Line_142" data-name="Line 142" y1="360" x2="360" transform="translate(200 30)" fill="none" stroke="#9d9d9d" stroke-width="1"/>
    <line id="Line_143" data-name="Line 143" y1="360" x2="360" transform="translate(220 30)" fill="none" stroke="#9d9d9d" stroke-width="1"/>
    <line id="Line_144" data-name="Line 144" y1="360" x2="360" transform="translate(240 30)" fill="none" stroke="#9d9d9d" stroke-width="1"/>
    <line id="Line_145" data-name="Line 145" y1="360" x2="360" transform="translate(260 30)" fill="none" stroke="#9d9d9d" stroke-width="1"/>
    <line id="Line_146" data-name="Line 146" y1="360" x2="360" transform="translate(280 30)" fill="none" stroke="#9d9d9d" stroke-width="1"/>
    <line id="Line_147" data-name="Line 147" y1="360" x2="360" transform="translate(300 30)" fill="none" stroke="#9d9d9d" stroke-width="1"/>
    <line id="Line_148" data-name="Line 148" y1="360" x2="360" transform="translate(320 30)" fill="none" stroke="#9d9d9d" stroke-width="1"/>
    <line id="Line_149" data-name="Line 149" y1="360" x2="360" transform="translate(340 30)" fill="none" stroke="#9d9d9d" stroke-width="1"/>
    <line id="Line_150" data-name="Line 150" y1="360" x2="360" transform="translate(360 30)" fill="none" stroke="#9d9d9d" stroke-width="1"/>
    <line id="Line_151" data-name="Line 151" y1="360" x2="360" transform="translate(380 30)" fill="none" stroke="#9d9d9d" stroke-width="1"/>
    <line id="Line_152" data-name="Line 152" y1="360" x2="360" transform="translate(400 30)" fill="none" stroke="#9d9d9d" stroke-width="1"/>
    <line id="Line_153" data-name="Line 153" y1="360" x2="360" transform="translate(420 30)" fill="none" stroke="#9d9d9d" stroke-width="1"/>
    <line id="Line_154" data-name="Line 154" y1="360" x2="360" transform="translate(440 30)" fill="none" stroke="#9d9d9d" stroke-width="1"/>
    <line id="Line_155" data-name="Line 155" y1="360" x2="360" transform="translate(460 30)" fill="none" stroke="#9d9d9d" stroke-width="1"/>
    <line id="Line_156" data-name="Line 156" y1="360" x2="360" transform="translate(480 30)" fill="none" stroke="#9d9d9d" stroke-width="1"/>
    <line id="Line_157" data-name="Line 157" y1="360" x2="360" transform="translate(500 30)" fill="none" stroke="#9d9d9d" stroke-width="1"/>
    <line id="Line_158" data-name="Line 158" y1="360" x2="360" transform="translate(520 30)" fill="none" stroke="#9d9d9d" stroke-width="1"/>
    <line id="Line_159" data-name="Line 159" y1="360" x2="360" transform="translate(540 30)" fill="none" stroke="#9d9d9d" stroke-width="1"/>
    <line id="Line_160" data-name="Line 160" y1="360" x2="360" transform="translate(560 30)" fill="none" stroke="#9d9d9d" stroke-width="1"/>
    <line id="Line_161" data-name="Line 161" y1="360" x2="360" transform="translate(580 30)" fill="none" stroke="#9d9d9d" stroke-width="1"/>
    <line id="Line_162" data-name="Line 162" y1="360" x2="360" transform="translate(600 30)" fill="none" stroke="#9d9d9d" stroke-width="1"/>
    <line id="Line_163" data-name="Line 163" y1="360" x2="360" transform="translate(620 30)" fill="none" stroke="#9d9d9d" stroke-width="1"/>
    <line id="Line_164" data-name="Line 164" y1="360" x2="360" transform="translate(640 30)" fill="none" stroke="#9d9d9d" stroke-width="1"/>
    <line id="Line_165" data-name="Line 165" y1="360" x2="360" transform="translate(660 30)" fill="none" stroke="#9d9d9d" stroke-width="1"/>
    <line id="Line_166" data-name="Line 166" y1="360" x2="360" transform="translate(680 30)" fill="none" stroke="#9d9d9d" stroke-width="1"/>
    <line id="Line_167" data-name="Line 167" y1="360" x2="360" transform="translate(700 30)" fill="none" stroke="#9d9d9d" stroke-width="1"/>
    <line id="Line_168" data-name="Line 168" y1="360" x2="360" transform="translate(720 30)" fill="none" stroke="#9d9d9d" stroke-width="1"/>
    <line id="Line_169" data-name="Line 169" y1="360" x2="360" transform="translate(740 30)" fill="none" stroke="#9d9d9d" stroke-width="1"/>
    <line id="Line_170" data-name="Line 170" y1="360" x2="360" transform="translate(760 30)" fill="none" stroke="#9d9d9d" stroke-width="1"/>
    <line id="Line_171" data-name="Line 171" y1="360" x2="360" transform="translate(780 30)" fill="none" stroke="#9d9d9d" stroke-width="1"/>
    <line id="Line_172" data-name="Line 172" y1="360" x2="360" transform="translate(800 30)" fill="none" stroke="#9d9d9d" stroke-width="1"/>
    <line id="Line_173" data-name="Line 173" x1="50" y2="50" transform="translate(1180 340)" fill="none" stroke="#9d9d9d" stroke-width="1"/>
    <line id="Line_174" data-name="Line 174" x1="70" y2="70" transform="translate(1160 320)" fill="none" stroke="#9d9d9d" stroke-width="1"/>
    <line id="Line_175" data-name="Line 175" x1="90" y2="90" transform="translate(1140 300)" fill="none" stroke="#9d9d9d" stroke-width="1"/>
    <line id="Line_176" data-name="Line 176" x1="110" y2="110" transform="translate(1120 280)" fill="none" stroke="#9d9d9d" stroke-width="1"/>
    <line id="Line_177" data-name="Line 177" x1="130" y2="130" transform="translate(1100 260)" fill="none" stroke="#9d9d9d" stroke-width="1"/>
    <line id="Line_178" data-name="Line 178" x1="150" y2="150" transform="translate(1080 240)" fill="none" stroke="#9d9d9d" stroke-width="1"/>
    <line id="Line_179" data-name="Line 179" x1="170" y2="170" transform="translate(1060 220)" fill="none" stroke="#9d9d9d" stroke-width="1"/>
    <line id="Line_180" data-name="Line 180" x1="190" y2="190" transform="translate(1040 200)" fill="none" stroke="#9d9d9d" stroke-width="1"/>
    <line id="Line_181" data-name="Line 181" x1="210" y2="210" transform="translate(1020 180)" fill="none" stroke="#9d9d9d" stroke-width="1"/>
    <line id="Line_182" data-name="Line 182" x1="230" y2="230" transform="translate(1000 160)" fill="none" stroke="#9d9d9d" stroke-width="1"/>
    <line id="Line_183" data-name="Line 183" x1="250" y2="250" transform="translate(980 140)" fill="none" stroke="#9d9d9d" stroke-width="1"/>
    <line id="Line_184" data-name="Line 184" x1="270" y2="270" transform="translate(960 120)" fill="none" stroke="#9d9d9d" stroke-width="1"/>
    <line id="Line_185" data-name="Line 185" x1="290" y2="290" transform="translate(940 100)" fill="none" stroke="#9d9d9d" stroke-width="1"/>
    <line id="Line_186" data-name="Line 186" x1="310" y2="310" transform="translate(920 80)" fill="none" stroke="#9d9d9d" stroke-width="1"/>
    <line id="Line_187" data-name="Line 187" x1="326.969" y2="326.969" transform="translate(900 63.031)" fill="none" stroke="#9d9d9d" stroke-width="1"/>
    <line id="Line_188" data-name="Line 188" x1="340" y2="340" transform="translate(880 50)" fill="none" stroke="#9d9d9d" stroke-width="1"/>
    <line id="Line_189" data-name="Line 189" x1="350" y2="350" transform="translate(860 40)" fill="none" stroke="#9d9d9d" stroke-width="1"/>
    <line id="Line_190" data-name="Line 190" x1="356.969" y2="356.969" transform="translate(840 33.031)" fill="none" stroke="#9d9d9d" stroke-width="1"/>
    <line id="Line_191" data-name="Line 191" x1="360" y2="360" transform="translate(820 30)" fill="none" stroke="#9d9d9d" stroke-width="1"/>
    <rect id="Rectangle_15" data-name="Rectangle 15" width="380" height="300" rx="30" transform="translate(820 60)" stroke="#9d9d9d" stroke-width="1"/>
    <rect id="Rectangle_16" data-name="Rectangle 16" width="380" height="300" rx="30" transform="translate(60 60)" stroke="#9d9d9d" stroke-width="1"/>
  </g>
</svg>
