<svg width="1261" height="320" viewBox="0 0 1261 320" fill="none" xmlns="http://www.w3.org/2000/svg">
<g clip-path="url(#clip0_3_48)">
<path d="M1195.5 0.380005H65.5C29.6015 0.380005 0.5 22.4999 0.5 49.7862V270.214C0.5 297.5 29.6015 319.62 65.5 319.62H1195.5C1231.4 319.62 1260.5 297.5 1260.5 270.214V49.7862C1260.5 22.4999 1231.4 0.380005 1195.5 0.380005Z" stroke="#9D9D9D"/>
<path d="M1180.5 23.1829H80.5C52.8858 23.1829 30.5 40.1982 30.5 61.1876V258.812C30.5 279.802 52.8858 296.817 80.5 296.817H1180.5C1208.11 296.817 1230.5 279.802 1230.5 258.812V61.1876C1230.5 40.1982 1208.11 23.1829 1180.5 23.1829Z" stroke="#9D9D9D"/>
<path d="M30.5 61.1876L80.5 23.1829" stroke="#9D9D9D"/>
<path d="M30.5 76.3895L100.5 23.1829" stroke="#9D9D9D"/>
<path d="M30.5 91.5914L120.5 23.1829" stroke="#9D9D9D"/>
<path d="M30.5 106.793L140.5 23.1829" stroke="#9D9D9D"/>
<path d="M30.5 121.995L160.5 23.1829" stroke="#9D9D9D"/>
<path d="M30.5 137.197L180.5 23.1829" stroke="#9D9D9D"/>
<path d="M30.5 152.399L200.5 23.1829" stroke="#9D9D9D"/>
<path d="M30.5 167.601L220.5 23.1829" stroke="#9D9D9D"/>
<path d="M30.5 182.803L240.5 23.1829" stroke="#9D9D9D"/>
<path d="M30.5 198.005L260.5 23.1829" stroke="#9D9D9D"/>
<path d="M30.5 213.207L280.5 23.1829" stroke="#9D9D9D"/>
<path d="M30.5 228.409L300.5 23.1829" stroke="#9D9D9D"/>
<path d="M30.5 243.61L320.5 23.1829" stroke="#9D9D9D"/>
<path d="M30.5 258.812L340.5 23.1829" stroke="#9D9D9D"/>
<path d="M33.4932 271.739L360.5 23.1829" stroke="#9D9D9D"/>
<path d="M40.5 281.615L380.5 23.1829" stroke="#9D9D9D"/>
<path d="M50.5 289.216L400.5 23.1829" stroke="#9D9D9D"/>
<path d="M63.4248 294.594L420.5 23.1829" stroke="#9D9D9D"/>
<path d="M80.5 296.817L440.5 23.1829" stroke="#9D9D9D"/>
<path d="M100.5 296.817L460.5 23.1829" stroke="#9D9D9D"/>
<path d="M120.5 296.817L480.5 23.1829" stroke="#9D9D9D"/>
<path d="M140.5 296.817L500.5 23.1829" stroke="#9D9D9D"/>
<path d="M160.5 296.817L520.5 23.1829" stroke="#9D9D9D"/>
<path d="M180.5 296.817L540.5 23.1829" stroke="#9D9D9D"/>
<path d="M200.5 296.817L560.5 23.1829" stroke="#9D9D9D"/>
<path d="M220.5 296.817L580.5 23.1829" stroke="#9D9D9D"/>
<path d="M240.5 296.817L600.5 23.1829" stroke="#9D9D9D"/>
<path d="M260.5 296.817L620.5 23.1829" stroke="#9D9D9D"/>
<path d="M280.5 296.817L640.5 23.1829" stroke="#9D9D9D"/>
<path d="M300.5 296.817L660.5 23.1829" stroke="#9D9D9D"/>
<path d="M320.5 296.817L680.5 23.1829" stroke="#9D9D9D"/>
<path d="M340.5 296.817L700.5 23.1829" stroke="#9D9D9D"/>
<path d="M360.5 296.817L720.5 23.1829" stroke="#9D9D9D"/>
<path d="M380.5 296.817L740.5 23.1829" stroke="#9D9D9D"/>
<path d="M400.5 296.817L760.5 23.1829" stroke="#9D9D9D"/>
<path d="M420.5 296.817L780.5 23.1829" stroke="#9D9D9D"/>
<path d="M440.5 296.817L800.5 23.1829" stroke="#9D9D9D"/>
<path d="M460.5 296.817L820.5 23.1829" stroke="#9D9D9D"/>
<path d="M480.5 296.817L840.5 23.1829" stroke="#9D9D9D"/>
<path d="M500.5 296.817L860.5 23.1829" stroke="#9D9D9D"/>
<path d="M520.5 296.817L880.5 23.1829" stroke="#9D9D9D"/>
<path d="M540.5 296.817L900.5 23.1829" stroke="#9D9D9D"/>
<path d="M560.5 296.817L920.5 23.1829" stroke="#9D9D9D"/>
<path d="M580.5 296.817L940.5 23.1829" stroke="#9D9D9D"/>
<path d="M600.5 296.817L960.5 23.1829" stroke="#9D9D9D"/>
<path d="M620.5 296.817L980.5 23.1829" stroke="#9D9D9D"/>
<path d="M640.5 296.817L1000.5 23.1829" stroke="#9D9D9D"/>
<path d="M660.5 296.817L1020.5 23.1829" stroke="#9D9D9D"/>
<path d="M680.5 296.817L1040.5 23.1829" stroke="#9D9D9D"/>
<path d="M700.5 296.817L1060.5 23.1829" stroke="#9D9D9D"/>
<path d="M720.5 296.817L1080.5 23.1829" stroke="#9D9D9D"/>
<path d="M740.5 296.817L1100.5 23.1829" stroke="#9D9D9D"/>
<path d="M760.5 296.817L1120.5 23.1829" stroke="#9D9D9D"/>
<path d="M780.5 296.817L1140.5 23.1829" stroke="#9D9D9D"/>
<path d="M800.5 296.817L1160.5 23.1829" stroke="#9D9D9D"/>
<path d="M1230.5 258.812L1180.5 296.817" stroke="#9D9D9D"/>
<path d="M1230.5 243.61L1160.5 296.817" stroke="#9D9D9D"/>
<path d="M1230.5 228.408L1140.5 296.817" stroke="#9D9D9D"/>
<path d="M1230.5 213.207L1120.5 296.817" stroke="#9D9D9D"/>
<path d="M1230.5 198.005L1100.5 296.817" stroke="#9D9D9D"/>
<path d="M1230.5 182.803L1080.5 296.817" stroke="#9D9D9D"/>
<path d="M1230.5 167.601L1060.5 296.817" stroke="#9D9D9D"/>
<path d="M1230.5 152.399L1040.5 296.817" stroke="#9D9D9D"/>
<path d="M1230.5 137.197L1020.5 296.817" stroke="#9D9D9D"/>
<path d="M1230.5 121.995L1000.5 296.817" stroke="#9D9D9D"/>
<path d="M1230.5 106.793L980.5 296.817" stroke="#9D9D9D"/>
<path d="M1230.5 91.5914L960.5 296.817" stroke="#9D9D9D"/>
<path d="M1230.5 76.3895L940.5 296.817" stroke="#9D9D9D"/>
<path d="M1230.5 61.1876L920.5 296.817" stroke="#9D9D9D"/>
<path d="M1227.47 48.2896L900.5 296.817" stroke="#9D9D9D"/>
<path d="M1220.5 38.3848L880.5 296.817" stroke="#9D9D9D"/>
<path d="M1210.5 30.7838L860.5 296.817" stroke="#9D9D9D"/>
<path d="M1197.47 25.4867L840.5 296.817" stroke="#9D9D9D"/>
<path d="M1180.5 23.1829L820.5 296.817" stroke="#9D9D9D"/>
<path d="M1170.5 45.9857H850.5C833.931 45.9857 820.5 56.1949 820.5 68.7886V251.211C820.5 263.805 833.931 274.014 850.5 274.014H1170.5C1187.07 274.014 1200.5 263.805 1200.5 251.211V68.7886C1200.5 56.1949 1187.07 45.9857 1170.5 45.9857Z" fill="#171329" stroke="#9D9D9D"/>
<path d="M410.5 45.9857H90.5C73.9315 45.9857 60.5 56.1949 60.5 68.7886V251.211C60.5 263.805 73.9315 274.014 90.5 274.014H410.5C427.069 274.014 440.5 263.805 440.5 251.211V68.7886C440.5 56.1949 427.069 45.9857 410.5 45.9857Z" fill="#171329" stroke="#9D9D9D"/>
</g>
<defs>
<clipPath id="clip0_3_48">
<rect width="1261" height="320" fill="white"/>
</clipPath>
</defs>
</svg>
