<svg id="Battery_slot" data-name="Battery slot" xmlns="http://www.w3.org/2000/svg" width="403.967" height="403.967" viewBox="0 0 403.967 403.967">
  <g id="Intersection_1" data-name="Intersection 1" transform="translate(123.982 201.819) rotate(-45)" fill="none">
    <path d="M0,55.5A55.274,55.274,0,0,1,55.04.233V0H186.775a143.3,143.3,0,0,1,0,110.543H60.374q-2.519.231-5.1.232A55.272,55.272,0,0,1,0,55.5Z" stroke="none"/>
    <path d="M 55.27165222167969 109.7757415771484 C 56.94358062744141 109.7757415771484 58.62970352172852 109.6989364624023 60.28322982788086 109.5474853515625 L 60.32875442504883 109.5433120727539 L 186.1090698242188 109.5432891845703 C 189.5608367919922 101.2145614624023 192.2206726074219 92.51682281494141 194.0171508789062 83.68136596679688 C 195.9057464599609 74.39273834228516 196.8633575439453 64.83446502685547 196.8633575439453 55.27206420898438 C 196.8633575439453 45.70963668823242 195.9057006835938 36.15121459960938 194.0170288085938 26.86231231689453 C 192.2205047607422 18.02666091918945 189.5606079101562 9.32877254486084 186.1087951660156 1.000013113021851 L 56.03965377807617 1.000013113021851 L 56.03965377807617 1.229138135910034 L 55.04380416870117 1.233288168907166 C 47.74150466918945 1.263588190078735 40.66120529174805 2.719563245773315 33.99952697753906 5.560763359069824 C 27.56250381469727 8.30616283416748 21.78302955627441 12.22351360321045 16.82162857055664 17.20398902893066 C 11.85927867889404 22.18543815612793 7.963928699493408 27.98091316223145 5.243828773498535 34.42941284179688 C 2.427828788757324 41.10528945922852 1.000003814697266 48.1958122253418 1.000003814697266 55.50408935546875 C 1.000003814697266 62.83113861083984 2.43480372428894 69.93849182128906 5.264528751373291 76.62871551513672 C 6.62462854385376 79.84431457519531 8.308103561401367 82.94583892822266 10.26817893981934 85.84713745117188 C 12.20980358123779 88.72113800048828 14.43967914581299 91.42375946044922 16.89582824707031 93.87991333007812 C 19.35197830200195 96.3360595703125 22.05457878112793 98.56594085693359 24.92857933044434 100.5075607299805 C 27.82987785339355 102.4676361083984 30.93140411376953 104.1511154174805 34.14700317382812 105.5112152099609 C 40.83725357055664 108.340934753418 47.94460296630859 109.7757415771484 55.27165222167969 109.7757415771484 M 55.27165222167969 110.7757415771484 C 24.74602890014648 110.7757415771484 3.771972615140839e-06 86.02968597412109 3.771972615140839e-06 55.50408935546875 C 3.771972615140839e-06 25.05666351318359 24.62190437316895 0.3595131635665894 55.03965377807617 0.2332881540060043 L 55.03965377807617 1.315917961619562e-05 L 186.7751007080078 1.315917961619562e-05 C 193.9157562255859 17.00018882751465 197.8633575439453 35.67726135253906 197.8633575439453 55.27206420898438 C 197.8633575439453 74.86673736572266 193.9159851074219 93.54313659667969 186.7753753662109 110.5432891845703 L 60.37445449829102 110.5433120727539 C 58.69482803344727 110.6971664428711 56.99137878417969 110.7757415771484 55.27165222167969 110.7757415771484 Z" stroke="none" fill="#00ff6c"/>
  </g>
  <line id="Line_204" data-name="Line 204" y2="47.642" transform="translate(201.984 178.163)" fill="none" stroke="#00ff6c" stroke-width="1"/>
  <line id="Line_205" data-name="Line 205" y2="47.642" transform="translate(225.805 201.984) rotate(90)" fill="none" stroke="#00ff6c" stroke-width="1"/>
  <g id="Ellipse_13" data-name="Ellipse 13" transform="translate(0 201.984) rotate(-45)" fill="none" stroke="#00ff6c" stroke-width="1">
    <circle cx="142.824" cy="142.824" r="142.824" stroke="none"/>
    <circle cx="142.824" cy="142.824" r="142.324" fill="none"/>
  </g>
</svg>
