<!-- <svg xmlns="http://www.w3.org/2000/svg" width="48" height="16" viewBox="0 0 48 16">
  <g id="Battery_icon" data-name="Battery icon" transform="translate(-99.931 -480)">
    <rect id="Rectangle_36" data-name="Rectangle 36" width="42" height="16" rx="2" transform="translate(99.931 480)" fill="#fff"/>
    <path id="Rectangle_37" data-name="Rectangle 37" d="M0,0H2A1,1,0,0,1,3,1V9a1,1,0,0,1-1,1H0a0,0,0,0,1,0,0V0A0,0,0,0,1,0,0Z" transform="translate(144.931 483)" fill="#fff"/>
    <rect id="Rectangle_38" data-name="Rectangle 38" width="24" height="10" transform="translate(101.931 483)" fill="#171329" />
  </g>
</svg> -->

<svg width="48" height="16" viewBox="0 0 48 16" fill="none" xmlns="http://www.w3.org/2000/svg">
<path d="M40 0H2C0.89543 0 0 0.89543 0 2V14C0 15.1046 0.89543 16 2 16H40C41.1046 16 42 15.1046 42 14V2C42 0.89543 41.1046 0 40 0Z" fill="white"/>
<path d="M45 3H47C47.2652 3 47.5196 3.10536 47.7071 3.29289C47.8946 3.48043 48 3.73478 48 4V12C48 12.2652 47.8946 12.5196 47.7071 12.7071C47.5196 12.8946 47.2652 13 47 13H45V3Z" fill="white"/>
<path d="M39 2H3C2.44772 2 2 2.44772 2 3V13C2 13.5523 2.44772 14 3 14H39C39.5523 14 40 13.5523 40 13V3C40 2.44772 39.5523 2 39 2Z" fill="#171329"/>
<rect x="2" y="2" width="1" height="12" fill="white"/>
</svg>

