<svg id="Button_battery" data-name="Button battery" xmlns="http://www.w3.org/2000/svg" width="260.472" height="260.472" viewBox="0 0 260.472 260.472">
  <g id="Group_24" data-name="Group 24" transform="translate(0 0)">
    <ellipse id="Ellipse_14" data-name="Ellipse 14" cx="130.236" cy="130.236" rx="130.236" ry="130.236" fill="#fff"/>
    <g id="Ellipse_15" data-name="Ellipse 15" transform="translate(16.044 16.044)" fill="#fff" stroke="#000" stroke-width="6">
      <ellipse cx="114.192" cy="114.192" rx="114.192" ry="114.192" stroke="none"/>
      <ellipse cx="114.192" cy="114.192" rx="111.192" ry="111.192" fill="none"/>
    </g>
  </g>
  <path id="Path_10" data-name="Path 10" d="M94.15,61.492A3.192,3.192,0,1,1,90.958,58.3,3.192,3.192,0,0,1,94.15,61.492Zm22.342-28.725a3.192,3.192,0,1,0,3.192,3.192A3.192,3.192,0,0,0,116.492,32.767ZM103.725,45.533a3.192,3.192,0,1,0,3.192,3.192A3.192,3.192,0,0,0,103.725,45.533Zm0,12.767a3.192,3.192,0,1,0,3.192,3.192A3.192,3.192,0,0,0,103.725,58.3Zm12.767-12.767a3.192,3.192,0,1,0,3.192,3.192A3.192,3.192,0,0,0,116.492,45.533Zm0,12.767a3.192,3.192,0,1,0,3.192,3.192A3.192,3.192,0,0,0,116.492,58.3Zm-38.3,25.533a3.192,3.192,0,1,0,3.192,3.192A3.192,3.192,0,0,0,78.192,83.833ZM90.958,71.067a3.192,3.192,0,1,0,3.192,3.192A3.192,3.192,0,0,0,90.958,71.067Zm0,12.767a3.192,3.192,0,1,0,3.192,3.192A3.192,3.192,0,0,0,90.958,83.833ZM78.192,96.6a3.192,3.192,0,1,0,3.192,3.192A3.192,3.192,0,0,0,78.192,96.6Zm0,12.767a3.192,3.192,0,1,0,3.192,3.192A3.192,3.192,0,0,0,78.192,109.366ZM90.958,96.6a3.192,3.192,0,1,0,3.192,3.192A3.192,3.192,0,0,0,90.958,96.6Zm0,12.767a3.192,3.192,0,1,0,3.192,3.192A3.192,3.192,0,0,0,90.958,109.366Zm12.767-38.3a3.192,3.192,0,1,0,3.192,3.192A3.192,3.192,0,0,0,103.725,71.067Zm0,12.767a3.192,3.192,0,1,0,3.192,3.192A3.192,3.192,0,0,0,103.725,83.833Zm12.767-12.767a3.192,3.192,0,1,0,3.192,3.192A3.192,3.192,0,0,0,116.492,71.067Zm0,12.767a3.192,3.192,0,1,0,3.192,3.192A3.192,3.192,0,0,0,116.492,83.833ZM103.725,96.6a3.192,3.192,0,1,0,3.192,3.192A3.192,3.192,0,0,0,103.725,96.6Zm0,12.767a3.192,3.192,0,1,0,3.192,3.192A3.192,3.192,0,0,0,103.725,109.366ZM116.492,96.6a3.192,3.192,0,1,0,3.192,3.192A3.192,3.192,0,0,0,116.492,96.6Zm0,12.767a3.192,3.192,0,1,0,3.192,3.192A3.192,3.192,0,0,0,116.492,109.366Zm-38.3,12.767a3.192,3.192,0,1,0,3.192,3.192A3.192,3.192,0,0,0,78.192,122.133Zm0,12.767a3.192,3.192,0,1,0,3.192,3.192A3.192,3.192,0,0,0,78.192,134.9Zm12.767-12.767a3.192,3.192,0,1,0,3.192,3.192A3.192,3.192,0,0,0,90.958,122.133Zm0,12.767a3.192,3.192,0,1,0,3.192,3.192A3.192,3.192,0,0,0,90.958,134.9ZM78.192,147.666a3.192,3.192,0,1,0,3.192,3.192A3.192,3.192,0,0,0,78.192,147.666Zm12.767,0a3.192,3.192,0,1,0,3.192,3.192A3.192,3.192,0,0,0,90.958,147.666Zm0,12.767a3.192,3.192,0,1,0,3.192,3.192A3.192,3.192,0,0,0,90.958,160.433Zm12.767-38.3a3.192,3.192,0,1,0,3.192,3.192A3.192,3.192,0,0,0,103.725,122.133Zm0,12.767a3.192,3.192,0,1,0,3.192,3.192A3.192,3.192,0,0,0,103.725,134.9Zm12.767-12.767a3.192,3.192,0,1,0,3.192,3.192A3.192,3.192,0,0,0,116.492,122.133Zm0,12.767a3.192,3.192,0,1,0,3.192,3.192A3.192,3.192,0,0,0,116.492,134.9Zm-12.767,12.767a3.192,3.192,0,1,0,3.192,3.192A3.192,3.192,0,0,0,103.725,147.666Zm0,12.767a3.192,3.192,0,1,0,3.192,3.192A3.192,3.192,0,0,0,103.725,160.433Zm12.767-12.767a3.192,3.192,0,1,0,3.192,3.192A3.192,3.192,0,0,0,116.492,147.666Zm0,12.767a3.192,3.192,0,1,0,3.192,3.192A3.192,3.192,0,0,0,116.492,160.433ZM90.958,173.2a3.192,3.192,0,1,0,3.192,3.192A3.192,3.192,0,0,0,90.958,173.2Zm12.767,0a3.192,3.192,0,1,0,3.192,3.192A3.192,3.192,0,0,0,103.725,173.2Zm0,12.767a3.192,3.192,0,1,0,3.192,3.192A3.192,3.192,0,0,0,103.725,185.966ZM116.492,173.2a3.192,3.192,0,1,0,3.192,3.192A3.192,3.192,0,0,0,116.492,173.2Zm0,12.767a3.192,3.192,0,1,0,3.192,3.192A3.192,3.192,0,0,0,116.492,185.966Zm0,12.767a3.192,3.192,0,1,0,3.192,3.192A3.192,3.192,0,0,0,116.492,198.733ZM129.258,32.767a3.192,3.192,0,1,0,3.192,3.192A3.192,3.192,0,0,0,129.258,32.767ZM142.025,20a3.192,3.192,0,1,0,3.192,3.192A3.192,3.192,0,0,0,142.025,20Zm0,12.767a3.192,3.192,0,1,0,3.192,3.192A3.192,3.192,0,0,0,142.025,32.767ZM129.258,45.533a3.192,3.192,0,1,0,3.192,3.192A3.192,3.192,0,0,0,129.258,45.533Zm0,12.767a3.192,3.192,0,1,0,3.192,3.192A3.192,3.192,0,0,0,129.258,58.3Zm12.767-12.767a3.192,3.192,0,1,0,3.192,3.192A3.192,3.192,0,0,0,142.025,45.533Zm0,12.767a3.192,3.192,0,1,0,3.192,3.192A3.192,3.192,0,0,0,142.025,58.3ZM154.791,20a3.192,3.192,0,1,0,3.192,3.192A3.192,3.192,0,0,0,154.791,20Zm0,12.767a3.192,3.192,0,1,0,3.192,3.192A3.192,3.192,0,0,0,154.791,32.767ZM167.558,20a3.192,3.192,0,1,0,3.192,3.192A3.192,3.192,0,0,0,167.558,20Zm0,12.767a3.192,3.192,0,1,0,3.192,3.192A3.192,3.192,0,0,0,167.558,32.767ZM154.791,45.533a3.192,3.192,0,1,0,3.192,3.192A3.192,3.192,0,0,0,154.791,45.533Zm0,12.767a3.192,3.192,0,1,0,3.192,3.192A3.192,3.192,0,0,0,154.791,58.3Zm12.767-12.767a3.192,3.192,0,1,0,3.192,3.192A3.192,3.192,0,0,0,167.558,45.533Zm0,12.767a3.192,3.192,0,1,0,3.192,3.192A3.192,3.192,0,0,0,167.558,58.3Zm-38.3,12.767a3.192,3.192,0,1,0,3.192,3.192A3.192,3.192,0,0,0,129.258,71.067Zm0,12.767a3.192,3.192,0,1,0,3.192,3.192A3.192,3.192,0,0,0,129.258,83.833Zm12.767-12.767a3.192,3.192,0,1,0,3.192,3.192A3.192,3.192,0,0,0,142.025,71.067Zm0,12.767a3.192,3.192,0,1,0,3.192,3.192A3.192,3.192,0,0,0,142.025,83.833ZM129.258,96.6a3.192,3.192,0,1,0,3.192,3.192A3.192,3.192,0,0,0,129.258,96.6Zm0,12.767a3.192,3.192,0,1,0,3.192,3.192A3.192,3.192,0,0,0,129.258,109.366ZM142.025,96.6a3.192,3.192,0,1,0,3.192,3.192A3.192,3.192,0,0,0,142.025,96.6Zm0,12.767a3.192,3.192,0,1,0,3.192,3.192A3.192,3.192,0,0,0,142.025,109.366Zm12.767-38.3a3.192,3.192,0,1,0,3.192,3.192A3.192,3.192,0,0,0,154.791,71.067Zm0,12.767a3.192,3.192,0,1,0,3.192,3.192A3.192,3.192,0,0,0,154.791,83.833Zm12.767-12.767a3.192,3.192,0,1,0,3.192,3.192A3.192,3.192,0,0,0,167.558,71.067Zm0,12.767a3.192,3.192,0,1,0,3.192,3.192A3.192,3.192,0,0,0,167.558,83.833ZM154.791,96.6a3.192,3.192,0,1,0,3.192,3.192A3.192,3.192,0,0,0,154.791,96.6Zm0,12.767a3.192,3.192,0,1,0,3.192,3.192A3.192,3.192,0,0,0,154.791,109.366ZM167.558,96.6a3.192,3.192,0,1,0,3.192,3.192A3.192,3.192,0,0,0,167.558,96.6Zm0,12.767a3.192,3.192,0,1,0,3.192,3.192A3.192,3.192,0,0,0,167.558,109.366Zm-38.3,12.767a3.192,3.192,0,1,0,3.192,3.192A3.192,3.192,0,0,0,129.258,122.133Zm0,12.767a3.192,3.192,0,1,0,3.192,3.192A3.192,3.192,0,0,0,129.258,134.9Zm12.767-12.767a3.192,3.192,0,1,0,3.192,3.192A3.192,3.192,0,0,0,142.025,122.133Zm0,12.767a3.192,3.192,0,1,0,3.192,3.192A3.192,3.192,0,0,0,142.025,134.9Zm-12.767,12.767a3.192,3.192,0,1,0,3.192,3.192A3.192,3.192,0,0,0,129.258,147.666Zm0,12.767a3.192,3.192,0,1,0,3.192,3.192A3.192,3.192,0,0,0,129.258,160.433Zm12.767-12.767a3.192,3.192,0,1,0,3.192,3.192A3.192,3.192,0,0,0,142.025,147.666Zm0,12.767a3.192,3.192,0,1,0,3.192,3.192A3.192,3.192,0,0,0,142.025,160.433Zm12.767-38.3a3.192,3.192,0,1,0,3.192,3.192A3.192,3.192,0,0,0,154.791,122.133Zm0,12.767a3.192,3.192,0,1,0,3.192,3.192A3.192,3.192,0,0,0,154.791,134.9Zm12.767-12.767a3.192,3.192,0,1,0,3.192,3.192A3.192,3.192,0,0,0,167.558,122.133Zm0,12.767a3.192,3.192,0,1,0,3.192,3.192A3.192,3.192,0,0,0,167.558,134.9Zm-12.767,12.767a3.192,3.192,0,1,0,3.192,3.192A3.192,3.192,0,0,0,154.791,147.666Zm0,12.767a3.192,3.192,0,1,0,3.192,3.192A3.192,3.192,0,0,0,154.791,160.433Zm12.767-12.767a3.192,3.192,0,1,0,3.192,3.192A3.192,3.192,0,0,0,167.558,147.666Zm0,12.767a3.192,3.192,0,1,0,3.192,3.192A3.192,3.192,0,0,0,167.558,160.433Zm-38.3,12.767a3.192,3.192,0,1,0,3.192,3.192A3.192,3.192,0,0,0,129.258,173.2Zm0,12.767a3.192,3.192,0,1,0,3.192,3.192A3.192,3.192,0,0,0,129.258,185.966ZM142.025,173.2a3.192,3.192,0,1,0,3.192,3.192A3.192,3.192,0,0,0,142.025,173.2Zm0,12.767a3.192,3.192,0,1,0,3.192,3.192A3.192,3.192,0,0,0,142.025,185.966Zm-12.767,12.767a3.192,3.192,0,1,0,3.192,3.192A3.192,3.192,0,0,0,129.258,198.733Zm12.767,0a3.192,3.192,0,1,0,3.192,3.192A3.192,3.192,0,0,0,142.025,198.733Zm0,12.767a3.192,3.192,0,1,0,3.192,3.192A3.192,3.192,0,0,0,142.025,211.5Zm12.767-38.3a3.192,3.192,0,1,0,3.192,3.192A3.192,3.192,0,0,0,154.791,173.2Zm0,12.767a3.192,3.192,0,1,0,3.192,3.192A3.192,3.192,0,0,0,154.791,185.966ZM167.558,173.2a3.192,3.192,0,1,0,3.192,3.192A3.192,3.192,0,0,0,167.558,173.2Zm0,12.767a3.192,3.192,0,1,0,3.192,3.192A3.192,3.192,0,0,0,167.558,185.966Zm-12.767,12.767a3.192,3.192,0,1,0,3.192,3.192A3.192,3.192,0,0,0,154.791,198.733Zm0,12.767a3.192,3.192,0,1,0,3.192,3.192A3.192,3.192,0,0,0,154.791,211.5Zm12.767-12.767a3.192,3.192,0,1,0,3.192,3.192A3.192,3.192,0,0,0,167.558,198.733Zm0,12.767a3.192,3.192,0,1,0,3.192,3.192A3.192,3.192,0,0,0,167.558,211.5ZM180.325,20a3.192,3.192,0,1,0,3.192,3.192A3.192,3.192,0,0,0,180.325,20Zm0,12.767a3.192,3.192,0,1,0,3.192,3.192A3.192,3.192,0,0,0,180.325,32.767ZM193.091,20a3.192,3.192,0,1,0,3.192,3.192A3.192,3.192,0,0,0,193.091,20Zm0,12.767a3.192,3.192,0,1,0,3.192,3.192A3.192,3.192,0,0,0,193.091,32.767ZM180.325,45.533a3.192,3.192,0,1,0,3.192,3.192A3.192,3.192,0,0,0,180.325,45.533Zm0,12.767a3.192,3.192,0,1,0,3.192,3.192A3.192,3.192,0,0,0,180.325,58.3Zm12.767-12.767a3.192,3.192,0,1,0,3.192,3.192A3.192,3.192,0,0,0,193.091,45.533Zm0,12.767a3.192,3.192,0,1,0,3.192,3.192A3.192,3.192,0,0,0,193.091,58.3ZM205.858,20a3.192,3.192,0,1,0,3.192,3.192A3.192,3.192,0,0,0,205.858,20Zm0,12.767a3.192,3.192,0,1,0,3.192,3.192A3.192,3.192,0,0,0,205.858,32.767Zm12.767,0a3.192,3.192,0,1,0,3.192,3.192A3.192,3.192,0,0,0,218.625,32.767ZM205.858,45.533a3.192,3.192,0,1,0,3.192,3.192A3.192,3.192,0,0,0,205.858,45.533Zm0,12.767a3.192,3.192,0,1,0,3.192,3.192A3.192,3.192,0,0,0,205.858,58.3Zm12.767-12.767a3.192,3.192,0,1,0,3.192,3.192A3.192,3.192,0,0,0,218.625,45.533Zm0,12.767a3.192,3.192,0,1,0,3.192,3.192A3.192,3.192,0,0,0,218.625,58.3Zm-38.3,12.767a3.192,3.192,0,1,0,3.192,3.192A3.192,3.192,0,0,0,180.325,71.067Zm0,12.767a3.192,3.192,0,1,0,3.192,3.192A3.192,3.192,0,0,0,180.325,83.833Zm12.767-12.767a3.192,3.192,0,1,0,3.192,3.192A3.192,3.192,0,0,0,193.091,71.067Zm0,12.767a3.192,3.192,0,1,0,3.192,3.192A3.192,3.192,0,0,0,193.091,83.833ZM180.325,96.6a3.192,3.192,0,1,0,3.192,3.192A3.192,3.192,0,0,0,180.325,96.6Zm0,12.767a3.192,3.192,0,1,0,3.192,3.192A3.192,3.192,0,0,0,180.325,109.366ZM193.091,96.6a3.192,3.192,0,1,0,3.192,3.192A3.192,3.192,0,0,0,193.091,96.6Zm0,12.767a3.192,3.192,0,1,0,3.192,3.192A3.192,3.192,0,0,0,193.091,109.366Zm12.767-38.3a3.192,3.192,0,1,0,3.192,3.192A3.192,3.192,0,0,0,205.858,71.067Zm0,12.767a3.192,3.192,0,1,0,3.192,3.192A3.192,3.192,0,0,0,205.858,83.833Zm12.767-12.767a3.192,3.192,0,1,0,3.192,3.192A3.192,3.192,0,0,0,218.625,71.067Zm0,12.767a3.192,3.192,0,1,0,3.192,3.192A3.192,3.192,0,0,0,218.625,83.833ZM205.858,96.6a3.192,3.192,0,1,0,3.192,3.192A3.192,3.192,0,0,0,205.858,96.6Zm0,12.767a3.192,3.192,0,1,0,3.192,3.192A3.192,3.192,0,0,0,205.858,109.366ZM218.625,96.6a3.192,3.192,0,1,0,3.192,3.192A3.192,3.192,0,0,0,218.625,96.6Zm0,12.767a3.192,3.192,0,1,0,3.192,3.192A3.192,3.192,0,0,0,218.625,109.366Zm-38.3,12.767a3.192,3.192,0,1,0,3.192,3.192A3.192,3.192,0,0,0,180.325,122.133Zm0,12.767a3.192,3.192,0,1,0,3.192,3.192A3.192,3.192,0,0,0,180.325,134.9Zm12.767-12.767a3.192,3.192,0,1,0,3.192,3.192A3.192,3.192,0,0,0,193.091,122.133Zm0,12.767a3.192,3.192,0,1,0,3.192,3.192A3.192,3.192,0,0,0,193.091,134.9Zm-12.767,12.767a3.192,3.192,0,1,0,3.192,3.192A3.192,3.192,0,0,0,180.325,147.666Zm0,12.767a3.192,3.192,0,1,0,3.192,3.192A3.192,3.192,0,0,0,180.325,160.433Zm12.767-12.767a3.192,3.192,0,1,0,3.192,3.192A3.192,3.192,0,0,0,193.091,147.666Zm0,12.767a3.192,3.192,0,1,0,3.192,3.192A3.192,3.192,0,0,0,193.091,160.433Zm12.767-38.3a3.192,3.192,0,1,0,3.192,3.192A3.192,3.192,0,0,0,205.858,122.133Zm0,12.767a3.192,3.192,0,1,0,3.192,3.192A3.192,3.192,0,0,0,205.858,134.9Zm12.767-12.767a3.192,3.192,0,1,0,3.192,3.192A3.192,3.192,0,0,0,218.625,122.133Zm0,12.767a3.192,3.192,0,1,0,3.192,3.192A3.192,3.192,0,0,0,218.625,134.9Zm-12.767,12.767a3.192,3.192,0,1,0,3.192,3.192A3.192,3.192,0,0,0,205.858,147.666Zm0,12.767a3.192,3.192,0,1,0,3.192,3.192A3.192,3.192,0,0,0,205.858,160.433Zm12.767-12.767a3.192,3.192,0,1,0,3.192,3.192A3.192,3.192,0,0,0,218.625,147.666Zm0,12.767a3.192,3.192,0,1,0,3.192,3.192A3.192,3.192,0,0,0,218.625,160.433Zm-38.3,12.767a3.192,3.192,0,1,0,3.192,3.192A3.192,3.192,0,0,0,180.325,173.2Zm0,12.767a3.192,3.192,0,1,0,3.192,3.192A3.192,3.192,0,0,0,180.325,185.966ZM193.091,173.2a3.192,3.192,0,1,0,3.192,3.192A3.192,3.192,0,0,0,193.091,173.2Zm0,12.767a3.192,3.192,0,1,0,3.192,3.192A3.192,3.192,0,0,0,193.091,185.966Zm-12.767,12.767a3.192,3.192,0,1,0,3.192,3.192A3.192,3.192,0,0,0,180.325,198.733Zm0,12.767a3.192,3.192,0,1,0,3.192,3.192A3.192,3.192,0,0,0,180.325,211.5Zm12.767-12.767a3.192,3.192,0,1,0,3.192,3.192A3.192,3.192,0,0,0,193.091,198.733Zm0,12.767a3.192,3.192,0,1,0,3.192,3.192A3.192,3.192,0,0,0,193.091,211.5Zm12.767-38.3a3.192,3.192,0,1,0,3.192,3.192A3.192,3.192,0,0,0,205.858,173.2Zm0,12.767a3.192,3.192,0,1,0,3.192,3.192A3.192,3.192,0,0,0,205.858,185.966ZM218.625,173.2a3.192,3.192,0,1,0,3.192,3.192A3.192,3.192,0,0,0,218.625,173.2Zm0,12.767a3.192,3.192,0,1,0,3.192,3.192A3.192,3.192,0,0,0,218.625,185.966Zm-12.767,12.767a3.192,3.192,0,1,0,3.192,3.192A3.192,3.192,0,0,0,205.858,198.733Zm0,12.767a3.192,3.192,0,1,0,3.192,3.192A3.192,3.192,0,0,0,205.858,211.5Zm12.767-12.767a3.192,3.192,0,1,0,3.192,3.192A3.192,3.192,0,0,0,218.625,198.733ZM231.391,32.767a3.192,3.192,0,1,0,3.192,3.192A3.192,3.192,0,0,0,231.391,32.767Zm0,12.767a3.192,3.192,0,1,0,3.192,3.192A3.192,3.192,0,0,0,231.391,45.533Zm0,12.767a3.192,3.192,0,1,0,3.192,3.192A3.192,3.192,0,0,0,231.391,58.3Zm12.767-12.767a3.192,3.192,0,1,0,3.192,3.192A3.192,3.192,0,0,0,244.158,45.533Zm0,12.767a3.192,3.192,0,1,0,3.192,3.192A3.192,3.192,0,0,0,244.158,58.3Zm12.767,0a3.192,3.192,0,1,0,3.192,3.192A3.192,3.192,0,0,0,256.925,58.3ZM231.391,71.067a3.192,3.192,0,1,0,3.192,3.192A3.192,3.192,0,0,0,231.391,71.067Zm0,12.767a3.192,3.192,0,1,0,3.192,3.192A3.192,3.192,0,0,0,231.391,83.833Zm12.767-12.767a3.192,3.192,0,1,0,3.192,3.192A3.192,3.192,0,0,0,244.158,71.067Zm0,12.767a3.192,3.192,0,1,0,3.192,3.192A3.192,3.192,0,0,0,244.158,83.833ZM231.391,96.6a3.192,3.192,0,1,0,3.192,3.192A3.192,3.192,0,0,0,231.391,96.6Zm0,12.767a3.192,3.192,0,1,0,3.192,3.192A3.192,3.192,0,0,0,231.391,109.366ZM244.158,96.6a3.192,3.192,0,1,0,3.192,3.192A3.192,3.192,0,0,0,244.158,96.6Zm0,12.767a3.192,3.192,0,1,0,3.192,3.192A3.192,3.192,0,0,0,244.158,109.366Zm12.767-38.3a3.192,3.192,0,1,0,3.192,3.192A3.192,3.192,0,0,0,256.925,71.067Zm0,12.767a3.192,3.192,0,1,0,3.192,3.192A3.192,3.192,0,0,0,256.925,83.833Zm12.767,0a3.192,3.192,0,1,0,3.192,3.192A3.192,3.192,0,0,0,269.691,83.833ZM256.925,96.6a3.192,3.192,0,1,0,3.192,3.192A3.192,3.192,0,0,0,256.925,96.6Zm0,12.767a3.192,3.192,0,1,0,3.192,3.192A3.192,3.192,0,0,0,256.925,109.366ZM269.691,96.6a3.192,3.192,0,1,0,3.192,3.192A3.192,3.192,0,0,0,269.691,96.6Zm0,12.767a3.192,3.192,0,1,0,3.192,3.192A3.192,3.192,0,0,0,269.691,109.366Zm-38.3,12.767a3.192,3.192,0,1,0,3.192,3.192A3.192,3.192,0,0,0,231.391,122.133Zm0,12.767a3.192,3.192,0,1,0,3.192,3.192A3.192,3.192,0,0,0,231.391,134.9Zm12.767-12.767a3.192,3.192,0,1,0,3.192,3.192A3.192,3.192,0,0,0,244.158,122.133Zm0,12.767a3.192,3.192,0,1,0,3.192,3.192A3.192,3.192,0,0,0,244.158,134.9Zm-12.767,12.767a3.192,3.192,0,1,0,3.192,3.192A3.192,3.192,0,0,0,231.391,147.666Zm0,12.767a3.192,3.192,0,1,0,3.192,3.192A3.192,3.192,0,0,0,231.391,160.433Zm12.767-12.767a3.192,3.192,0,1,0,3.192,3.192A3.192,3.192,0,0,0,244.158,147.666Zm0,12.767a3.192,3.192,0,1,0,3.192,3.192A3.192,3.192,0,0,0,244.158,160.433Zm12.767-38.3a3.192,3.192,0,1,0,3.192,3.192A3.192,3.192,0,0,0,256.925,122.133Zm0,12.767a3.192,3.192,0,1,0,3.192,3.192A3.192,3.192,0,0,0,256.925,134.9Zm12.767-12.767a3.192,3.192,0,1,0,3.192,3.192A3.192,3.192,0,0,0,269.691,122.133Zm0,12.767a3.192,3.192,0,1,0,3.192,3.192A3.192,3.192,0,0,0,269.691,134.9Zm-12.767,12.767a3.192,3.192,0,1,0,3.192,3.192A3.192,3.192,0,0,0,256.925,147.666Zm0,12.767a3.192,3.192,0,1,0,3.192,3.192A3.192,3.192,0,0,0,256.925,160.433Zm12.767-12.767a3.192,3.192,0,1,0,3.192,3.192A3.192,3.192,0,0,0,269.691,147.666Zm-38.3,25.533a3.192,3.192,0,1,0,3.192,3.192A3.192,3.192,0,0,0,231.391,173.2Zm0,12.767a3.192,3.192,0,1,0,3.192,3.192A3.192,3.192,0,0,0,231.391,185.966ZM244.158,173.2a3.192,3.192,0,1,0,3.192,3.192A3.192,3.192,0,0,0,244.158,173.2Zm0,12.767a3.192,3.192,0,1,0,3.192,3.192A3.192,3.192,0,0,0,244.158,185.966Zm-12.767,12.767a3.192,3.192,0,1,0,3.192,3.192A3.192,3.192,0,0,0,231.391,198.733ZM256.925,173.2a3.192,3.192,0,1,0,3.192,3.192A3.192,3.192,0,0,0,256.925,173.2Z" transform="translate(-43.705 11.295)" fill="none" stroke="#9d9d9d" stroke-width="1" opacity="0.101"/>
</svg>
