<svg width="24" height="24" viewBox="0 0 24 24" fill="none" xmlns="http://www.w3.org/2000/svg">
<path d="M8.11998 9.29001L12 13.17L15.88 9.29001C15.9726 9.19742 16.0825 9.12399 16.2034 9.07388C16.3244 9.02378 16.454 8.99799 16.585 8.99799C16.7159 8.99799 16.8456 9.02378 16.9665 9.07388C17.0875 9.12399 17.1974 9.19742 17.29 9.29001C17.3826 9.38259 17.456 9.4925 17.5061 9.61346C17.5562 9.73443 17.582 9.86408 17.582 9.99501C17.582 10.1259 17.5562 10.2556 17.5061 10.3765C17.456 10.4975 17.3826 10.6074 17.29 10.7L12.7 15.29C12.6075 15.3827 12.4976 15.4563 12.3766 15.5064C12.2556 15.5566 12.1259 15.5825 11.995 15.5825C11.864 15.5825 11.7343 15.5566 11.6134 15.5064C11.4924 15.4563 11.3825 15.3827 11.29 15.29L6.69998 10.7C6.60727 10.6075 6.53372 10.4976 6.48354 10.3766C6.43336 10.2557 6.40753 10.126 6.40753 9.99501C6.40753 9.86404 6.43336 9.73436 6.48354 9.61338C6.53372 9.49241 6.60727 9.38252 6.69998 9.29001C7.08998 8.91001 7.72998 8.90001 8.11998 9.29001V9.29001Z" fill="white"/>
</svg>
