<svg xmlns="http://www.w3.org/2000/svg" width="1248.54" height="442.346" viewBox="0 0 1248.54 442.346">
  <g id="Contact_battery" data-name="Contact battery" transform="translate(-202.606 -324.518)">
    <g id="Heavy_outine" data-name="Heavy outine" transform="translate(0 0)">
      <path d="M 1322.183837890625 765.3638305664062 L 331.5662841796875 765.3638305664062 C 322.8489074707031 765.3638305664062 314.1393737792969 763.843505859375 305.6798095703125 760.8450927734375 C 297.45458984375 757.9298706054688 289.3699645996094 753.583984375 281.6502990722656 747.928466796875 C 274.0933532714844 742.3921508789062 266.8092041015625 735.5450439453125 260.0002746582031 727.577392578125 C 253.2710571289062 719.7029418945312 246.9456634521484 710.6640014648438 241.1998291015625 700.7118530273438 C 235.4621276855469 690.7735595703125 230.2541351318359 679.8409423828125 225.7205963134766 668.2178344726562 C 221.1473541259766 656.492919921875 217.2198181152344 643.96044921875 214.04736328125 630.96875 C 210.8176727294922 617.7430419921875 208.3375091552734 603.9039916992188 206.6753540039062 589.8358154296875 C 204.9704437255859 575.4046020507812 204.1059722900391 560.552001953125 204.1059722900391 545.69091796875 C 204.1059722900391 530.8295288085938 204.9704437255859 515.9769287109375 206.6753540039062 501.5453796386719 C 208.3375091552734 487.4770812988281 210.8176727294922 473.6378479003906 214.04736328125 460.4121398925781 C 217.2198181152344 447.4204711914062 221.1473541259766 434.8881530761719 225.7205963134766 423.1632385253906 C 230.2541351318359 411.5400085449219 235.4621276855469 400.6075439453125 241.1998291015625 390.6692199707031 C 246.9456634521484 380.7172241210938 253.2710571289062 371.6783142089844 260.0002746582031 363.8039855957031 C 266.8092041015625 355.8363037109375 274.0933532714844 348.9893798828125 281.6502990722656 343.4530639648438 C 289.3699645996094 337.7976989746094 297.45458984375 333.4519958496094 305.6798095703125 330.53662109375 C 314.1393737792969 327.5382995605469 322.8489074707031 326.0180053710938 331.5662841796875 326.0180053710938 L 1322.183837890625 326.0180053710938 C 1330.901245117188 326.0180053710938 1339.610717773438 327.5382995605469 1348.070434570312 330.53662109375 C 1356.295654296875 333.4519958496094 1364.380493164062 337.7976989746094 1372.10009765625 343.4530639648438 C 1379.6572265625 348.9893798828125 1386.94140625 355.8363037109375 1393.75048828125 363.8039855957031 C 1400.47998046875 371.6783142089844 1406.805541992188 380.7172241210938 1412.551391601562 390.6692199707031 C 1418.289184570312 400.6075439453125 1423.497314453125 411.5400085449219 1428.030883789062 423.1632385253906 C 1432.604248046875 434.8881530761719 1436.531860351562 447.4204711914062 1439.704467773438 460.4121398925781 C 1442.93408203125 473.6378479003906 1445.41455078125 487.4770812988281 1447.076538085938 501.5453796386719 C 1448.781616210938 515.9769287109375 1449.646118164062 530.8295288085938 1449.646118164062 545.69091796875 C 1449.646118164062 560.552001953125 1448.781616210938 575.4046020507812 1447.076538085938 589.8358154296875 C 1445.41455078125 603.9039916992188 1442.93408203125 617.7430419921875 1439.704467773438 630.96875 C 1436.531860351562 643.96044921875 1432.604248046875 656.492919921875 1428.030883789062 668.2178344726562 C 1423.497314453125 679.8409423828125 1418.289184570312 690.7735595703125 1412.551391601562 700.7118530273438 C 1406.805419921875 710.6640014648438 1400.47998046875 719.7029418945312 1393.75048828125 727.577392578125 C 1386.94140625 735.5450439453125 1379.6572265625 742.3921508789062 1372.10009765625 747.928466796875 C 1364.380493164062 753.583984375 1356.295654296875 757.9298706054688 1348.070434570312 760.8450927734375 C 1339.610717773438 763.843505859375 1330.901245117188 765.3638305664062 1322.183837890625 765.3638305664062 Z" stroke="none"/>
      <path d="M 331.566162109375 327.5180053710938 C 262.000244140625 327.5180053710938 205.6058349609375 425.1970825195312 205.6058349609375 545.69091796875 C 205.6058349609375 666.1827392578125 262.000244140625 763.8636474609375 331.566162109375 763.8636474609375 L 1322.183837890625 763.8636474609375 C 1391.75 763.8636474609375 1448.14599609375 666.1827392578125 1448.14599609375 545.69091796875 C 1448.14599609375 425.1970825195312 1391.75 327.5180053710938 1322.183837890625 327.5180053710938 L 331.566162109375 327.5180053710938 M 331.566162109375 324.5180053710938 L 1322.183837890625 324.5180053710938 C 1331.072509765625 324.5180053710938 1339.95068359375 326.0671997070312 1348.571533203125 329.1227416992188 C 1356.934692382812 332.0869140625 1365.14892578125 336.501220703125 1372.986694335938 342.2430419921875 C 1380.636962890625 347.8477172851562 1388.006591796875 354.7738647460938 1394.890869140625 362.8294067382812 C 1401.6796875 370.7735595703125 1408.05859375 379.8878173828125 1413.850341796875 389.9192504882812 C 1419.6259765625 399.923095703125 1424.867309570312 410.9244384765625 1429.428344726562 422.6181640625 C 1434.025756835938 434.4044799804688 1437.973266601562 447.0006103515625 1441.16162109375 460.0562744140625 C 1444.40576171875 473.341064453125 1446.89697265625 487.2407836914062 1448.566162109375 501.369384765625 C 1450.278076171875 515.8590698242188 1451.14599609375 530.7709350585938 1451.14599609375 545.69091796875 C 1451.14599609375 560.610595703125 1450.278076171875 575.5222778320312 1448.566162109375 590.0118408203125 C 1446.89697265625 604.1402587890625 1444.40576171875 618.0400390625 1441.16162109375 631.3245849609375 C 1437.973266601562 644.3804931640625 1434.025756835938 656.9764404296875 1429.428344726562 668.7627563476562 C 1424.867309570312 680.4564208984375 1419.6259765625 691.4578857421875 1413.850341796875 701.461669921875 C 1408.05859375 711.4932250976562 1401.6796875 720.607666015625 1394.890869140625 728.5518798828125 C 1388.006591796875 736.607421875 1380.636962890625 743.53369140625 1372.986694335938 749.138427734375 C 1365.14892578125 754.8803100585938 1356.934692382812 759.2946166992188 1348.571533203125 762.2587890625 C 1339.95068359375 765.3143310546875 1331.072509765625 766.8636474609375 1322.183837890625 766.8636474609375 L 331.566162109375 766.8636474609375 C 322.6776123046875 766.8636474609375 313.799560546875 765.3143310546875 305.178466796875 762.2587890625 C 296.8155517578125 759.2946166992188 288.601318359375 754.8803100585938 280.763671875 749.138427734375 C 273.113525390625 743.53369140625 265.7440185546875 736.607421875 258.85986328125 728.5516967773438 C 252.0711669921875 720.607666015625 245.692138671875 711.4932250976562 239.900634765625 701.461669921875 C 234.1251220703125 691.4578857421875 228.884033203125 680.4564208984375 224.322998046875 668.7627563476562 C 219.7257080078125 656.9764404296875 215.7781982421875 644.3803100585938 212.590087890625 631.3245849609375 C 209.3460693359375 618.0400390625 206.8548583984375 604.1402587890625 205.1856689453125 590.0118408203125 C 203.473876953125 575.5222778320312 202.6058349609375 560.610595703125 202.6058349609375 545.69091796875 C 202.6058349609375 530.7709350585938 203.473876953125 515.8590698242188 205.1856689453125 501.369384765625 C 206.8548583984375 487.2407836914062 209.3460693359375 473.341064453125 212.590087890625 460.0564575195312 C 215.7781982421875 447.0006103515625 219.7257080078125 434.4044799804688 224.322998046875 422.6181640625 C 228.884033203125 410.9244384765625 234.1251220703125 399.923095703125 239.900634765625 389.9192504882812 C 245.692138671875 379.8878173828125 252.0711669921875 370.7735595703125 258.85986328125 362.8294067382812 C 265.7440185546875 354.7738647460938 273.113525390625 347.8477172851562 280.763671875 342.2430419921875 C 288.601318359375 336.501220703125 296.8155517578125 332.0869140625 305.178466796875 329.1227416992188 C 313.799560546875 326.0671997070312 322.6776123046875 324.5180053710938 331.566162109375 324.5180053710938 Z" stroke="none" fill="#fff"/>
    </g>
    <g id="Group_53" data-name="Group 53" transform="translate(205.606 327.518)">
      <ellipse id="Ellipse_29" data-name="Ellipse 29" cx="125.961" cy="218.172" rx="125.961" ry="218.172" transform="translate(990.617 0)" fill="none" stroke="#fff" stroke-width="0.75"/>
      <path id="Path_12" data-name="Path 12" d="M340.3,763.864c-69.566,0-125.96-97.679-125.96-218.173S270.729,327.518,340.3,327.518" transform="translate(-197.251 -327.518)" fill="none" stroke="#fff" stroke-width="0.75"/>
      <path id="Path_13" data-name="Path 13" d="M1322.184,763.864H331.566c-69.566,0-125.96-97.679-125.96-218.173S262,327.518,331.566,327.518h990.618" transform="translate(-205.606 -327.518)" fill="none" stroke="#fff" stroke-width="0.75"/>
      <ellipse id="Ellipse_30" data-name="Ellipse 30" cx="43.603" cy="75.524" rx="43.603" ry="75.524" transform="translate(1092.349 142.649)" fill="none" stroke="#fff" stroke-width="0.75"/>
      <ellipse id="Ellipse_31" data-name="Ellipse 31" cx="48.445" cy="83.91" rx="48.445" ry="83.91" transform="translate(1082.666 134.263)" fill="none" stroke="#fff" stroke-width="0.75"/>
      <path id="Path_14" data-name="Path 14" d="M816.7,563.937H797.328c-26.757,0-48.446-37.566-48.446-83.908s21.69-83.91,48.446-83.91H816.7" transform="translate(314.408 -261.855)" fill="none" stroke="#fff" stroke-width="0.75"/>
      <ellipse id="Ellipse_32" data-name="Ellipse 32" cx="106.583" cy="184.607" rx="106.583" ry="184.607" transform="translate(1009.996 33.565)" fill="none" stroke="#fff" stroke-width="0.75"/>
      <ellipse id="Ellipse_33" data-name="Ellipse 33" cx="116.271" cy="201.389" rx="116.271" ry="201.389" transform="translate(1009.992 16.783)" fill="none" stroke="#fff" stroke-width="0.75"/>
      <path id="Path_15" data-name="Path 15" d="M776.109,533.631c5.351,0,9.69,7.5,9.69,16.75s-4.339,16.75-9.69,16.75" transform="translate(340.469 -130.863)" fill="none" stroke="#fff" stroke-width="0.75"/>
      <line id="Line_265" data-name="Line 265" x1="893.729" transform="translate(130.802 16.799)" fill="none" stroke="#fff" stroke-width="0.75"/>
    </g>
  </g>
</svg>
