<svg width="545" height="1250" viewBox="0 0 545 1250" fill="none" xmlns="http://www.w3.org/2000/svg">
<path d="M542.655 129.51L542.655 1120.49C542.655 1129.21 540.785 1137.93 537.098 1146.39C533.513 1154.62 528.168 1162.7 521.213 1170.43C514.404 1177.99 505.984 1185.27 496.185 1192.08C486.501 1198.82 475.385 1205.14 463.146 1210.89C450.923 1216.63 437.478 1221.84 423.184 1226.38C408.765 1230.95 393.352 1234.88 377.375 1238.05C361.11 1241.29 344.091 1243.77 326.79 1245.43C309.042 1247.13 290.776 1248 272.5 1248C254.223 1248 235.957 1247.13 218.209 1245.43C200.908 1243.77 183.889 1241.29 167.624 1238.05C151.646 1234.88 136.234 1230.95 121.815 1226.38C107.52 1221.84 94.0754 1216.63 81.8532 1210.89C69.6142 1205.14 58.4981 1198.82 48.8142 1192.08C39.0155 1185.27 30.5951 1177.99 23.7865 1170.43C16.8315 1162.7 11.4871 1154.62 7.90175 1146.39C4.21439 1137.93 2.34473 1129.21 2.34473 1120.49L2.34473 129.51C2.34473 120.789 4.21439 112.076 7.90175 103.614C11.4871 95.3854 16.8315 87.2976 23.7865 79.5751C30.5951 72.0152 39.0155 64.7283 48.8142 57.9167C58.4981 51.1848 69.6142 44.8569 81.8532 39.1089C94.0754 33.369 107.52 28.159 121.815 23.6237C136.234 19.0487 151.646 15.1196 167.624 11.9458C183.889 8.71503 200.908 6.23364 218.209 4.57104C235.957 2.86534 254.223 2.00052 272.5 2.00052C290.776 2.00052 309.042 2.86534 326.79 4.57104C344.091 6.23364 361.11 8.71503 377.375 11.9458C393.352 15.1196 408.765 19.0487 423.184 23.6237C437.478 28.159 450.923 33.369 463.146 39.1089C475.385 44.857 486.501 51.1848 496.185 57.9167C505.984 64.7283 514.404 72.0152 521.213 79.5751C528.168 87.2976 533.513 95.3854 537.098 103.614C540.785 112.076 542.655 120.789 542.655 129.51Z" fill="black"/>
<path d="M4.18942 1120.49C4.18942 1190.08 124.316 1246.5 272.5 1246.5C420.682 1246.5 540.81 1190.08 540.81 1120.49L540.81 129.51C540.81 59.918 420.682 3.50122 272.5 3.50122C124.316 3.50122 4.18942 59.918 4.18942 129.51L4.18942 1120.49ZM0.5 1120.49L0.5 129.51C0.5 120.618 2.40521 111.736 6.16293 103.112C9.80829 94.7461 15.237 86.5289 22.2984 78.6882C29.191 71.0351 37.7089 63.6628 47.6156 56.776C57.3854 49.9846 68.5942 43.6034 80.9309 37.8095C93.2337 32.0317 106.763 26.7885 121.144 22.2258C135.639 17.6267 151.13 13.6777 167.186 10.4882C183.524 7.24283 200.618 4.7507 217.993 3.0809C235.812 1.36835 254.151 0.500114 272.5 0.500114C290.848 0.500114 309.187 1.36835 327.006 3.0809C344.381 4.7507 361.475 7.24283 377.813 10.4882C393.869 13.6777 409.36 17.6267 423.854 22.2258C438.235 26.7885 451.765 32.0317 464.068 37.8095C476.405 43.6034 487.614 49.9846 497.384 56.776C507.29 63.6628 515.808 71.0351 522.701 78.6882C529.762 86.5289 535.191 94.7461 538.836 103.112C542.594 111.736 544.5 120.618 544.5 129.51L544.5 1120.49C544.5 1129.38 542.594 1138.27 538.836 1146.89C535.191 1155.26 529.762 1163.47 522.701 1171.31C515.808 1178.97 507.29 1186.34 497.383 1193.23C487.614 1200.02 476.405 1206.4 464.068 1212.19C451.765 1217.97 438.235 1223.21 423.854 1227.78C409.36 1232.37 393.869 1236.32 377.813 1239.51C361.475 1242.76 344.381 1245.25 327.006 1246.92C309.187 1248.63 290.848 1249.5 272.5 1249.5C254.151 1249.5 235.812 1248.63 217.993 1246.92C200.618 1245.25 183.524 1242.76 167.186 1239.51C151.13 1236.32 135.639 1232.37 121.144 1227.78C106.763 1223.21 93.2337 1217.97 80.9309 1212.19C68.5942 1206.4 57.3854 1200.02 47.6156 1193.23C37.7089 1186.34 29.191 1178.97 22.2984 1171.31C15.237 1163.47 9.80829 1155.26 6.16293 1146.89C2.40521 1138.27 0.5 1129.38 0.5 1120.49Z" fill="white"/>
<path d="M540.808 129.51C540.808 59.9176 420.682 3.50217 272.499 3.50217C124.316 3.50217 4.18945 59.9176 4.18945 129.51C4.18945 199.102 124.316 255.517 272.499 255.517C420.682 255.517 540.808 199.102 540.808 129.51Z" fill="#171329" stroke="white" stroke-width="0.75"/>
<path d="M540.811 1103.4C540.811 1172.99 420.684 1229.4 272.5 1229.4C124.316 1229.4 4.18945 1172.99 4.18945 1103.4" stroke="white" stroke-width="0.75"/>
<path d="M540.811 129.509L540.811 1120.49C540.811 1190.08 420.684 1246.5 272.5 1246.5C124.316 1246.5 4.18945 1190.08 4.18945 1120.49L4.18945 129.509" fill="#171329"/>
<path d="M540.811 129.509L540.811 1120.49C540.811 1190.08 420.684 1246.5 272.5 1246.5C124.316 1246.5 4.18945 1190.08 4.18945 1120.49L4.18945 129.509" stroke="white" stroke-width="0.75"/>
<path d="M365.38 110.128C365.38 86.0382 323.796 66.5093 272.5 66.5093C221.204 66.5093 179.62 86.0382 179.62 110.128C179.62 134.219 221.204 153.747 272.5 153.747C323.796 153.747 365.38 134.219 365.38 110.128Z" stroke="white" stroke-width="0.75"/>
<path d="M375.693 114.971C375.693 88.2059 329.492 66.5084 272.5 66.5084C215.508 66.5084 169.307 88.2059 169.307 114.971C169.307 141.737 215.508 163.434 272.5 163.434C329.492 163.434 375.693 141.737 375.693 114.971Z" stroke="white" stroke-width="0.75"/>
<path d="M375.692 114.974V134.353C375.692 161.12 329.493 182.817 272.501 182.817C215.509 182.817 169.308 161.119 169.308 134.353V114.974" stroke="white" stroke-width="0.75"/>
<path d="M499.53 129.509C499.53 70.6227 397.884 22.8863 272.499 22.8863C147.113 22.8863 45.4678 70.6227 45.4678 129.509C45.4678 188.394 147.113 236.131 272.499 236.131C397.884 236.131 499.53 188.394 499.53 129.509Z" stroke="white" stroke-width="0.75"/>
<path d="M520.168 119.821C520.168 55.5826 409.283 3.5071 272.499 3.5071C135.715 3.5071 24.8291 55.5826 24.8291 119.821C24.8291 184.059 135.715 236.135 272.499 236.135C409.283 236.135 520.168 184.059 520.168 119.821Z" stroke="white" stroke-width="0.75"/>
<path d="M499.516 129.51C499.516 124.157 508.74 119.816 520.115 119.816C531.491 119.816 540.715 124.157 540.715 129.51" stroke="white" stroke-width="0.75"/>
<path d="M24.8491 221.59L24.8491 1115.65" stroke="white" stroke-width="0.75"/>
</svg>
