<svg id="Cost_icon" data-name="Cost icon" xmlns="http://www.w3.org/2000/svg" xmlns:xlink="http://www.w3.org/1999/xlink" width="109.101" height="109.101" viewBox="0 0 109.101 109.101">
  <defs>
    <clipPath id="clip-path">
      <rect id="Rectangle_80" data-name="Rectangle 80" width="109.101" height="109.101" fill="none"/>
    </clipPath>
  </defs>
  <g id="Group_154" data-name="Group 154" clip-path="url(#clip-path)">
    <path id="Path_26" data-name="Path 26" d="M53.1,4a2.978,2.978,0,0,1,2.121.879l49,49a3,3,0,0,1,0,4.243l-46.1,46.1a3,3,0,0,1-4.243,0l-49-49A2.98,2.98,0,0,1,4,53.1V7A3,3,0,0,1,7,4Zm0-4H7A7,7,0,0,0,0,7V53.1A7,7,0,0,0,2.051,58.05l49,49a7,7,0,0,0,9.9,0l46.1-46.1a7,7,0,0,0,0-9.9l-49-49A7,7,0,0,0,53.1,0" fill="#fff500"/>
    <circle id="Ellipse_62" data-name="Ellipse 62" cx="7" cy="7" r="7" transform="translate(14 14)" fill="none" stroke="#fff500" stroke-width="1"/>
    <path id="Path_27" data-name="Path 27" d="M58.75,50.613V39.259c4.786.923,4.787,3.531,4.787,5.376h8.4c0-4.738-1.831-12.359-13.187-13.853V25.025h-8.4v5.747a18.15,18.15,0,0,0-7.06,2.2c-2.8,1.652-6.127,5.016-6.127,11.659,0,4.738,1.831,12.359,13.187,13.853V69.841c-4.786-.922-4.787-3.531-4.787-5.375h-8.4c0,4.738,1.831,12.358,13.187,13.852v5.758h8.4V78.329a18.139,18.139,0,0,0,7.06-2.205c2.8-1.652,6.127-5.016,6.127-11.658C71.937,59.727,70.106,52.106,58.75,50.613ZM45.563,44.635c0-1.955,0-4.495,4.787-5.388V50.011C45.564,49.088,45.563,46.48,45.563,44.635ZM58.75,69.853V59.09c4.786.922,4.787,3.531,4.787,5.376C63.537,66.421,63.536,68.961,58.75,69.853Z" fill="none" stroke="#fff500" stroke-width="1"/>
  </g>
</svg>
