<svg xmlns="http://www.w3.org/2000/svg" width="1226" height="390" viewBox="0 0 1226 390">
  <g id="Depleeting_battery" data-name="Depleeting battery" transform="translate(2366)" fill="none">
    <path d="M-2295,390a20,20,0,0,1-20-20V300h-46a5,5,0,0,1-5-5V95a5,5,0,0,1,5-5h46V20a20,20,0,0,1,20-20h1135a20,20,0,0,1,20,20V370a20,20,0,0,1-20,20Z" stroke="none"/>
    <path d="M -1160.000122070312 388.9996948242188 C -1157.434692382812 388.9996948242188 -1154.946533203125 388.4975280761719 -1152.604858398438 387.507080078125 C -1150.342407226562 386.5501403808594 -1148.310424804688 385.1799926757812 -1146.565185546875 383.4349365234375 C -1144.819946289062 381.689697265625 -1143.449951171875 379.6576843261719 -1142.493041992188 377.3952331542969 C -1141.502563476562 375.0535278320312 -1141.000366210938 372.5653991699219 -1141.000366210938 369.9998474121094 L -1141.000366210938 19.99984741210938 C -1141.000366210938 17.43446350097656 -1141.502563476562 14.94630908966064 -1142.493041992188 12.60446262359619 C -1143.449951171875 10.34215545654297 -1144.819946289062 8.310154914855957 -1146.565185546875 6.564924240112305 C -1148.310424804688 4.819693565368652 -1150.342407226562 3.449539661407471 -1152.604858398438 2.492616653442383 C -1154.946533203125 1.502155065536499 -1157.434692382812 1.000001311302185 -1160.000122070312 1.000001311302185 L -2295 1.000001311302185 C -2297.5654296875 1.000001311302185 -2300.053466796875 1.502155065536499 -2302.395263671875 2.492616653442383 C -2304.65771484375 3.449539661407471 -2306.689697265625 4.819693565368652 -2308.434814453125 6.564924240112305 C -2310.18017578125 8.310154914855957 -2311.55029296875 10.34215545654297 -2312.507080078125 12.60446262359619 C -2313.49755859375 14.94630908966064 -2313.999755859375 17.43446350097656 -2313.999755859375 19.99984741210938 L -2313.999755859375 91 L -2360.999755859375 91 C -2363.20556640625 91 -2365.000244140625 92.79461669921875 -2365.000244140625 95.00046539306641 L -2365.000244140625 295.0001525878906 C -2365.000244140625 297.2055358886719 -2363.20556640625 298.9996948242188 -2360.999755859375 298.9996948242188 L -2313.999755859375 298.9996948242188 L -2313.999755859375 369.9998474121094 C -2313.999755859375 372.5653991699219 -2313.49755859375 375.0535278320312 -2312.507080078125 377.3952331542969 C -2311.55029296875 379.6575317382812 -2310.18017578125 381.689697265625 -2308.434814453125 383.4349365234375 C -2306.689697265625 385.1799926757812 -2304.65771484375 386.5501403808594 -2302.395263671875 387.507080078125 C -2300.053466796875 388.4975280761719 -2297.5654296875 388.9996948242188 -2295 388.9996948242188 L -1160.000122070312 388.9996948242188 M -1160.000122070312 389.9996948242188 L -2295 389.9996948242188 C -2306.045654296875 389.9996948242188 -2314.999755859375 381.0456848144531 -2314.999755859375 369.9998474121094 L -2314.999755859375 299.9996948242188 L -2360.999755859375 299.9996948242188 C -2363.761962890625 299.9996948242188 -2366.000244140625 297.7613830566406 -2366.000244140625 295.0001525878906 L -2366.000244140625 95.00046539306641 C -2366.000244140625 92.23831176757812 -2363.761962890625 90 -2360.999755859375 90 L -2314.999755859375 90 L -2314.999755859375 19.99984741210938 C -2314.999755859375 8.954154968261719 -2306.045654296875 1.258263182535302e-06 -2295 1.258263182535302e-06 L -1160.000122070312 1.258263182535302e-06 C -1148.954345703125 1.258263182535302e-06 -1140.000366210938 8.954154968261719 -1140.000366210938 19.99984741210938 L -1140.000366210938 369.9998474121094 C -1140.000366210938 381.0456848144531 -1148.954345703125 389.9996948242188 -1160.000122070312 389.9996948242188 Z" stroke="none" fill="#fff"/>
  </g>
</svg>
