<svg width="460" height="2226" viewBox="0 0 460 1226" fill="none" xmlns="http://www.w3.org/2000/svg">
<g clip-path="url(#clip0_1_7)">
<path d="M441.718 1200L441.718 75C441.718 69.7533 436.701 65.5 430.513 65.5L29.487 65.5C23.2986 65.5 18.2819 69.7533 18.2819 75L18.2819 1200C18.2819 1205.25 23.2986 1209.5 29.487 1209.5H430.513C436.701 1209.5 441.718 1205.25 441.718 1200Z" stroke="white"/>
<path d="M1.17987 1206C1.17987 1208.57 1.77217 1211.05 2.94039 1213.4C4.06909 1215.66 5.68516 1217.69 7.74344 1219.43C9.80192 1221.18 12.1987 1222.55 14.8672 1223.51C17.6292 1224.5 20.5639 1225 23.5899 1225H436.41C439.436 1225 442.371 1224.5 445.133 1223.51C447.802 1222.55 450.198 1221.18 452.257 1219.43C454.315 1217.69 455.931 1215.66 457.06 1213.4C458.228 1211.05 458.821 1208.57 458.821 1206L458.821 71C458.821 68.4346 458.228 65.9465 457.06 63.6047C455.931 61.3423 454.315 59.3103 452.257 57.5652C450.198 55.8198 447.802 54.4497 445.133 53.4929C442.371 52.5024 439.436 52.0002 436.41 52.0002L352.667 52.0002V5.00024C352.667 2.79443 350.55 0.999756 347.948 0.999756L112.051 0.999756C109.45 0.999756 107.334 2.79443 107.334 5.00024V52.0002L23.5899 52.0002C20.5639 52.0002 17.6292 52.5024 14.8672 53.4929C12.1988 54.4497 9.80192 55.8198 7.74344 57.5652C5.68516 59.3103 4.06909 61.3423 2.94039 63.6047C1.77217 65.9465 1.17987 68.4346 1.17987 71L1.17987 1206ZM0.000387369 1206L0.000387369 71C0.000387369 59.9543 10.5615 51.0002 23.5899 51.0002L106.154 51.0002V5.00024C106.154 2.23804 108.794 -0.000244141 112.051 -0.000244141L347.948 -0.000244141C351.206 -0.000244141 353.846 2.23804 353.846 5.00024V51.0002L436.41 51.0002C449.439 51.0002 460 59.9543 460 71L460 1206C460 1217.05 449.439 1226 436.41 1226H23.5899C10.5615 1226 0.000387369 1217.05 0.000387369 1206Z" fill="white"/>
</g>
<defs>
<clipPath id="clip0_1_7">
<rect width="1226" height="460" fill="white" transform="translate(460) rotate(90)"/>
</clipPath>
</defs>
</svg>
