<?xml version="1.0" encoding="utf-8"?>
<!-- Generator: Adobe Illustrator 27.2.0, SVG Export Plug-In . SVG Version: 6.00 Build 0)  -->
<svg version="1.1" id="Layer_1" xmlns="http://www.w3.org/2000/svg" xmlns:xlink="http://www.w3.org/1999/xlink" x="0px" y="0px"
	 viewBox="0 0 35 35" style="enable-background:new 0 0 35 35;" xml:space="preserve">
<style type="text/css">
	.st0{fill:#00FFF5;}
	.st1{fill:#171329;}
</style>
<g>
	<circle class="st0" cx="17.5" cy="17.5" r="17.5"/>
</g>
<g>
	<path class="st1" d="M10.9,26.3v-4c0-0.8,0.1-1.5,0.4-2.1c0.3-0.6,0.7-1.2,1.3-1.6c0.6-0.5,1.4-0.9,2.3-1.3l2.8-1.2
		c0.7-0.3,1.2-0.7,1.6-1.1c0.3-0.4,0.5-0.9,0.5-1.6c0-0.6-0.2-1.1-0.6-1.5c-0.4-0.4-1-0.6-1.7-0.6c-0.8,0-1.4,0.2-1.7,0.6
		c-0.4,0.4-0.6,1-0.6,1.7h-4.5c0-1.2,0.3-2.3,0.8-3.2c0.5-0.9,1.3-1.7,2.3-2.2s2.3-0.8,3.8-0.8c1.5,0,2.7,0.3,3.7,0.8
		c1,0.5,1.8,1.2,2.3,2.1c0.5,0.9,0.8,1.9,0.8,3v0.3c0,1.4-0.4,2.6-1.2,3.5c-0.8,0.9-2,1.8-3.7,2.5l-2.8,1.2
		c-0.4,0.2-0.7,0.4-0.9,0.6c-0.2,0.2-0.3,0.5-0.3,0.8V23l-1.1-0.7h9.9v4H10.9z"/>
</g>
</svg>
