<svg xmlns="http://www.w3.org/2000/svg" xmlns:xlink="http://www.w3.org/1999/xlink" width="98" height="98" viewBox="0 0 98 98">
  <defs>
    <clipPath id="clip-path">
      <rect id="Rectangle_81" data-name="Rectangle 81" width="98" height="98" transform="translate(0 0)" fill="none"/>
    </clipPath>
  </defs>
  <g id="Thermal_stability_icon" data-name="Thermal stability icon" transform="translate(0 0)">
    <g id="Group_156" data-name="Group 156" clip-path="url(#clip-path)">
      <path id="Path_28" data-name="Path 28" d="M30.97,79.97l-5.939-5.939,6.575-6.576a6.307,6.307,0,0,0,0-8.91L18.455,45.4a14.718,14.718,0,0,1,0-20.789l6.576-6.576,5.939,5.94-6.576,6.576a6.308,6.308,0,0,0,0,8.909L37.546,52.606a14.716,14.716,0,0,1,0,20.788Z" fill="none" stroke="#fff500" stroke-width="1"/>
      <path id="Path_29" data-name="Path 29" d="M51.97,79.97l-5.939-5.939,6.575-6.576a6.307,6.307,0,0,0,0-8.91L39.455,45.4a14.718,14.718,0,0,1,0-20.789l6.576-6.576,5.939,5.94-6.576,6.576a6.308,6.308,0,0,0,0,8.909L58.546,52.606a14.716,14.716,0,0,1,0,20.788Z" fill="none" stroke="#fff500" stroke-width="1"/>
      <path id="Path_30" data-name="Path 30" d="M72.97,79.97l-5.939-5.939,6.575-6.576a6.307,6.307,0,0,0,0-8.91L60.455,45.4a14.718,14.718,0,0,1,0-20.789l6.576-6.576,5.939,5.94-6.576,6.576a6.308,6.308,0,0,0,0,8.909L79.546,52.606a14.716,14.716,0,0,1,0,20.788Z" fill="none" stroke="#fff500" stroke-width="1"/>
      <path id="Path_31" data-name="Path 31" d="M73,4A21.024,21.024,0,0,1,94,25V73A21.024,21.024,0,0,1,73,94H25A21.023,21.023,0,0,1,4,73V25A21.024,21.024,0,0,1,25,4Zm0-4H25A25,25,0,0,0,0,25V73A25,25,0,0,0,25,98H73A25,25,0,0,0,98,73V25A25,25,0,0,0,73,0" fill="#fff500"/>
    </g>
  </g>
</svg>
