<svg width="552" height="5544" viewBox="0 0 552 5544" fill="none" xmlns="http://www.w3.org/2000/svg">
<rect x="544.5" y="0.5" width="3" height="1359" fill="white" stroke="white"/>
<rect x="1.5" y="1360.5" width="546" height="3" fill="white" stroke="white"/>
<rect x="1.5" y="1360.5" width="3" height="663" fill="white" stroke="white"/>
<rect x="5.5" y="2020.5" width="546" height="3" fill="white" stroke="white"/>
<rect x="548.5" y="2024.5" width="3" height="663" fill="white" stroke="white"/>
<rect x="1.5" y="2684.5" width="546" height="3" fill="white" stroke="white"/>
<rect x="0.5" y="2688.5" width="3" height="663" fill="white" stroke="white"/>
<rect x="4.5" y="3348.5" width="546" height="3" fill="white" stroke="white"/>
<rect x="547.5" y="3352.5" width="3" height="663" fill="white" stroke="white"/>
<rect x="0.5" y="4012.5" width="546" height="3" fill="white" stroke="white"/>
<rect x="0.5" y="4016.5" width="3" height="663" fill="white" stroke="white"/>
<rect x="4.5" y="4676.5" width="546" height="3" fill="white" stroke="white"/>
<rect x="547.5" y="4680.5" width="3" height="663" fill="white" stroke="white"/>
<rect x="250.5" y="5340.5" width="296" height="3" fill="white" stroke="white"/>
<rect x="250.5" y="5344.5" width="3" height="199" fill="white" stroke="white"/>
</svg>