<svg width="1344" height="6505" viewBox="0 0 1344 6505" fill="none" xmlns="http://www.w3.org/2000/svg">
<rect x="666.5" y="0.5" width="3" height="1399" fill="white" stroke="white"/>
<rect x="0.5" y="1400.5" width="669" height="3" fill="white" stroke="white"/>
<rect x="0.5" y="1404.5" width="3" height="799" fill="white" stroke="white"/>
<rect x="4.5" y="2200.5" width="669" height="3" fill="white" stroke="white"/>
<rect x="670.5" y="2204.5" width="3" height="799" fill="white" stroke="white"/>
<rect x="0.5" y="3000.5" width="669" height="3" fill="white" stroke="white"/>
<rect x="0.5" y="3004.5" width="3" height="799" fill="white" stroke="white"/>
<rect x="4.5" y="3800.5" width="669" height="3" fill="white" stroke="white"/>
<rect x="670.5" y="3804.5" width="3" height="799" fill="white" stroke="white"/>
<rect x="0.5" y="4600.5" width="669" height="3" fill="white" stroke="white"/>
<rect x="0.5" y="4604.5" width="3" height="799" fill="white" stroke="white"/>
<rect x="4.5" y="5400.5" width="669" height="3" fill="white" stroke="white"/>
<rect x="670.5" y="5404.5" width="3" height="799" fill="white" stroke="white"/>
<rect x="370.5" y="6200.5" width="299" height="3" fill="white" stroke="white"/>
<rect x="370.5" y="6204.5" width="3" height="300" fill="white" stroke="white"/>
</svg>
