<svg xmlns="http://www.w3.org/2000/svg" xmlns:xlink="http://www.w3.org/1999/xlink" width="107.41" height="97.001" viewBox="0 0 107.41 97.001">
  <defs>
    <clipPath id="clip-path">
      <rect id="Rectangle_98" data-name="Rectangle 98" width="107.41" height="97.001" transform="translate(0 0)" fill="none"/>
    </clipPath>
  </defs>
  <g id="Toxic_materials_icon" data-name="Toxic materials icon" transform="translate(0 0)">
    <g id="Group_176" data-name="Group 176" clip-path="url(#clip-path)">
      <path id="Path_45" data-name="Path 45" d="M53.705,4a10.887,10.887,0,0,1,9.526,5.5l38.683,67A11,11,0,0,1,92.388,93H15.022A11,11,0,0,1,5.5,76.5l38.683-67A10.887,10.887,0,0,1,53.705,4m0-4a14.858,14.858,0,0,0-12.99,7.5L2.032,74.5A15,15,0,0,0,15.022,97H92.388a15,15,0,0,0,12.99-22.5L66.695,7.5A14.858,14.858,0,0,0,53.705,0" fill="#fff500"/>
      <circle id="Ellipse_79" data-name="Ellipse 79" cx="8.206" cy="8.206" r="8.206" transform="translate(45.142 71.09)" fill="none" stroke="#fff500" stroke-width="1"/>
      <path id="Path_46" data-name="Path 46" d="M59.633,20.368H47.063a1.4,1.4,0,0,0-1.4,1.4V59.65a1.4,1.4,0,0,0,1.4,1.4h2.442v3.169a1.4,1.4,0,0,0,1.4,1.4H55.79a1.4,1.4,0,0,0,1.4-1.4V61.05h2.443a1.4,1.4,0,0,0,1.4-1.4V21.768A1.4,1.4,0,0,0,59.633,20.368Z" fill="none" stroke="#fff500" stroke-width="1"/>
    </g>
  </g>
</svg>
